<?xml version="1.0" standalone="no"?>
<!DOCTYPE svg PUBLIC "-//W3C//DTD SVG 20010904//EN"
 "http://www.w3.org/TR/2001/REC-SVG-20010904/DTD/svg10.dtd">
<svg version="1.0" xmlns="http://www.w3.org/2000/svg"
 width="512.000000pt" height="512.000000pt" viewBox="0 0 512.000000 512.000000"
 preserveAspectRatio="xMidYMid meet">
<metadata>
Created by potrace 1.14, written by Peter Selinger 2001-2017
</metadata>
<g transform="translate(0.000000,512.000000) scale(0.100000,-0.100000)"
fill="#000000" stroke="none">
<path d="M1531 3532 l0 -327 22 30 c39 55 169 177 229 215 77 50 139 70 211
69 78 -2 140 -42 177 -114 l25 -49 3 -795 c3 -879 4 -857 -61 -943 -42 -55
-108 -88 -272 -136 -110 -32 -130 -41 -128 -57 3 -33 -16 -54 -55 -61 -70 -12
-70 -24 1 -81 55 -44 322 -158 355 -151 4 1 14 -2 22 -5 8 -3 87 -18 174 -32
135 -22 185 -26 328 -24 150 2 234 9 304 23 220 45 412 104 517 158 23 11 43
20 45 19 5 -3 101 49 107 59 10 16 0 22 -42 29 -31 5 -39 11 -41 31 -2 14 -9
31 -15 38 -19 23 -108 63 -130 59 -18 -3 -11 -9 33 -31 30 -15 48 -25 40 -23
-73 20 -138 43 -150 52 -8 6 -42 25 -74 41 -76 37 -154 107 -177 159 -17 38
-19 87 -19 856 0 889 -2 849 56 919 15 18 46 40 69 50 37 16 48 17 97 5 63
-14 86 -25 150 -72 58 -42 161 -168 196 -240 21 -42 31 -53 47 -51 20 3 20 10
23 353 l2 350 -1035 2 -1035 2 1 -327z m1063 289 c4 -5 -3 -7 -14 -4 -23 6
-26 13 -6 13 8 0 17 -4 20 -9z m975 6 c-2 -2 -35 -32 -74 -67 l-70 -63 66 66
c37 37 70 67 75 67 4 0 5 -1 3 -3z m-230 -153 c9 -8 -135 -2 -154 6 -12 6 13
7 65 3 47 -3 87 -7 89 -9z m91 -2304 c0 -5 -5 -10 -11 -10 -5 0 -7 5 -4 10 3
6 8 10 11 10 2 0 4 -4 4 -10z"/>
</g>
</svg>
